<svg id="Group_576" data-name="Group 576" xmlns="http://www.w3.org/2000/svg" xmlns:xlink="http://www.w3.org/1999/xlink" width="438.25" height="77.183" viewBox="0 0 438.25 77.183">
  <defs>
    <clipPath id="clip-path">
      <rect id="Rectangle_391" data-name="Rectangle 391" width="438.25" height="77.183" fill="#fff"/>
    </clipPath>
  </defs>
  <g id="Group_486" data-name="Group 486" clip-path="url(#clip-path)">
    <path id="Path_772" data-name="Path 772" d="M222.753,39.186a3.263,3.263,0,0,1,2.5,3.4v.2a3.353,3.353,0,0,1-1.448,2.856,3.4,3.4,0,0,1-3.208.548,13.281,13.281,0,0,0-4.3-.7,14.093,14.093,0,0,0-14.124,14.162A14.091,14.091,0,0,0,216.3,73.767a13.975,13.975,0,0,0,4.3-.665,3.461,3.461,0,0,1,3.208.509,3.392,3.392,0,0,1,1.448,2.9,3.3,3.3,0,0,1-2.5,3.4,21.5,21.5,0,0,1-6.454.978,21.369,21.369,0,0,1-21.361-21.359,21.31,21.31,0,0,1,27.815-20.342" transform="translate(-101.032 -19.782)" fill="#fff"/>
    <path id="Path_773" data-name="Path 773" d="M290.6,38.168a21.369,21.369,0,0,1,21.359,21.359,21.359,21.359,0,0,1-42.718,0A21.368,21.368,0,0,1,290.6,38.168m0,7.315A14.092,14.092,0,0,0,276.48,59.645,14.092,14.092,0,0,0,290.6,73.766a14.16,14.16,0,0,0,14.122-14.122A14.16,14.16,0,0,0,290.6,45.483" transform="translate(-139.543 -19.782)" fill="#fff"/>
    <path id="Path_774" data-name="Path 774" d="M390.65,89.728a13.594,13.594,0,0,0,9.662-4.148,13.384,13.384,0,0,0,4.461-9.976v-.078a21.35,21.35,0,0,1-35.483-16,21.36,21.36,0,0,1,42.72-.078V75.605a20.291,20.291,0,0,1-6.729,15.1q-6.494,6.258-14.631,6.259-12.558,0-18.777-9.7a3.577,3.577,0,0,1,1.8-5.321l.117-.039a3.309,3.309,0,0,1,4.187,1.408q4.226,6.415,12.675,6.417m14.123-30.435A14.161,14.161,0,0,0,390.65,45.405a14.09,14.09,0,0,0-14.122,14.122,14.123,14.123,0,1,0,28.245,0Z" transform="translate(-191.394 -19.782)" fill="#fff"/>
    <path id="Path_775" data-name="Path 775" d="M481.447,77.327a3.333,3.333,0,0,1-1.057,2.5,3.42,3.42,0,0,1-2.5,1.056h-.119a3.418,3.418,0,0,1-2.5-1.056,3.34,3.34,0,0,1-1.056-2.5v-21.4a17.741,17.741,0,1,1,35.482,0v21.4a3.608,3.608,0,0,1-3.559,3.559h-.08a3.475,3.475,0,0,1-2.544-1.056,3.34,3.34,0,0,1-1.055-2.5v-21.4a10.5,10.5,0,1,0-21.008,0Z" transform="translate(-245.772 -19.782)" fill="#fff"/>
    <path id="Path_776" data-name="Path 776" d="M570.033,13.521a4.273,4.273,0,0,1-4.3-4.3,4.106,4.106,0,0,1,1.251-3.012,4.152,4.152,0,0,1,3.052-1.252,4.107,4.107,0,0,1,3.012,1.252,4.042,4.042,0,0,1,1.292,3.012,4.086,4.086,0,0,1-1.292,3.051,4.1,4.1,0,0,1-3.012,1.252m.04,7.433a3.337,3.337,0,0,1,2.5,1.056,3.46,3.46,0,0,1,1.057,2.543v35.56a3.608,3.608,0,0,1-3.559,3.559h-.08a3.469,3.469,0,0,1-2.541-1.056,3.343,3.343,0,0,1-1.058-2.5V24.553a3.609,3.609,0,0,1,3.6-3.6Z" transform="translate(-293.204 -2.568)" fill="#fff"/>
    <path id="Path_777" data-name="Path 777" d="M605.136,4.875a3.539,3.539,0,0,1,3.56,3.559V20.913h7.042a3.418,3.418,0,0,1,2.5,1.056,3.461,3.461,0,0,1,1.056,2.543v.078a3.333,3.333,0,0,1-1.056,2.5,3.418,3.418,0,0,1-2.5,1.056H608.7V52.521a3.727,3.727,0,0,0,1.136,2.739,3.769,3.769,0,0,0,2.775,1.135h3.132a3.417,3.417,0,0,1,2.5,1.056,3.463,3.463,0,0,1,1.056,2.543v.078a3.335,3.335,0,0,1-1.056,2.5,3.421,3.421,0,0,1-2.5,1.056h-3.132a11.088,11.088,0,0,1-11.149-11.11V8.434a3.539,3.539,0,0,1,3.562-3.559Z" transform="translate(-311.721 -2.527)" fill="#fff"/>
    <path id="Path_778" data-name="Path 778" d="M657.1,62.3a10.484,10.484,0,0,0,10.523,10.524A10.551,10.551,0,0,0,678.105,62.3V41.767a3.609,3.609,0,0,1,3.6-3.6h.08a3.333,3.333,0,0,1,2.5,1.057,3.463,3.463,0,0,1,1.057,2.542V79.2a18.249,18.249,0,0,1-17.72,17.76,19.177,19.177,0,0,1-10.094-2.738,17.206,17.206,0,0,1-6.649-7.081,3.58,3.58,0,0,1,2-4.968l.157-.079a3.471,3.471,0,0,1,2.464.04,3.616,3.616,0,0,1,1.839,1.681,10.585,10.585,0,0,0,4.186,4.264,11.89,11.89,0,0,0,6.1,1.644A10.692,10.692,0,0,0,678.105,79.2V76.584a17.722,17.722,0,0,1-23.041-1.761,16.973,16.973,0,0,1-5.2-12.519V41.767a3.466,3.466,0,0,1,1.054-2.542,3.426,3.426,0,0,1,2.5-1.057h.12a3.418,3.418,0,0,1,2.5,1.057,3.466,3.466,0,0,1,1.057,2.542Z" transform="translate(-336.808 -19.782)" fill="#fff"/>
    <path id="Path_779" data-name="Path 779" d="M753.377,70.833c0-.026.052.078.159.312q.233.588.547,0l.076-.234,13.107-30.552a3.318,3.318,0,0,1,3.284-2.191h.079a3.578,3.578,0,0,1,3.286,4.968l-14.55,33.957a5.993,5.993,0,0,1-11.149,0L733.662,43.136a3.579,3.579,0,0,1,3.286-4.968h.117a3.253,3.253,0,0,1,3.248,2.191q9.389,21.869,13.064,30.474" transform="translate(-380.08 -19.782)" fill="#fff"/>
    <path id="Path_780" data-name="Path 780" d="M48.679,75.817q.233.081.468.156a2.5,2.5,0,0,0,.563.174A21.267,21.267,0,1,0,34.529,56.955l.141.228a2.468,2.468,0,0,0,1.573,2,2.08,2.08,0,0,0,.651.152,2.5,2.5,0,0,0,1.338-.251l.048-.021a2.615,2.615,0,0,0,.439-.294,2.477,2.477,0,0,0,.8-1.24c.009-.024.021-.043.031-.067s0-.033,0-.053a2.484,2.484,0,0,0-.08-1.367,16.293,16.293,0,1,1,26.743,12.22C61.38,72.3,56.131,73.517,50.7,71.249c.114.054.125.069.1.064s-.056-.013-.085-.022c-.106-.029-.23-.069-.056-.013a2.48,2.48,0,0,0-1.71.264,2.162,2.162,0,0,0-1.047,1.138,2.43,2.43,0,0,0-.21.781.009.009,0,0,0,0,.005,2.355,2.355,0,0,0,1,2.35" transform="translate(-17.878 -17.88)" fill="#fff"/>
    <path id="Path_781" data-name="Path 781" d="M50.487,2.15c-.277-.1-.553-.185-.831-.277a4.551,4.551,0,0,0-1-.312A37.888,37.888,0,1,0,75.7,35.758l-.251-.409a4.408,4.408,0,0,0-2.8-3.561,3.776,3.776,0,0,0-1.163-.272,4.437,4.437,0,0,0-2.381.447h0L69.018,32a4.4,4.4,0,0,0-2.2,2.729c-.019.043-.039.078-.056.121,0,.028,0,.058.009.089a4.416,4.416,0,0,0,.141,2.441A29.028,29.028,0,1,1,19.261,15.61c8.6-7.194,17.951-9.362,27.633-5.324-.2-.1-.224-.119-.172-.114s.1.026.154.037c.187.055.41.132.1.024a4.405,4.405,0,0,0,3.043-.467,3.868,3.868,0,0,0,1.866-2.029,4.474,4.474,0,0,0,.377-1.388.154.154,0,0,1,0-.018s.653-2.011-1.779-4.18" transform="translate(0 0)" fill="#fff"/>
    <path id="Path_782" data-name="Path 782" d="M574.685,8.834a4.843,4.843,0,1,1-4.844-4.844,4.843,4.843,0,0,1,4.844,4.844" transform="translate(-292.825 -2.068)" fill="#fff"/>
    <path id="Path_783" data-name="Path 783" d="M863.873,55.374a3.531,3.531,0,0,1-1.76,4.734q-5.48,2.465-14.4,6.493l-14.359,6.494a13.43,13.43,0,0,0,11.112,5.4,14.128,14.128,0,0,0,13.338-9.505,3.355,3.355,0,0,1,3.443-2.426,3.437,3.437,0,0,1,2.934,1.526,3.362,3.362,0,0,1,.43,3.247,20.571,20.571,0,0,1-7.666,10.249,20.853,20.853,0,0,1-12.48,4.03,21.367,21.367,0,0,1-21.36-21.36,21.336,21.336,0,0,1,33.018-17.877,20.9,20.9,0,0,1,7.745,9m-19.4-5.164A14.141,14.141,0,0,0,830.5,66.444l24.762-11.188a13.458,13.458,0,0,0-10.8-5.047" transform="translate(-426.598 -22.231)" fill="#fff"/>
  </g>
</svg>
