<svg id="Group_3776" data-name="Group 3776" xmlns="http://www.w3.org/2000/svg" xmlns:xlink="http://www.w3.org/1999/xlink" width="229.318" height="40.386" viewBox="0 0 229.318 40.386">
  <defs>
    <clipPath id="clip-path">
      <rect id="Rectangle_391" data-name="Rectangle 391" width="229.317" height="40.386" fill="none"/>
    </clipPath>
  </defs>
  <g id="Group_486" data-name="Group 486" clip-path="url(#clip-path)">
    <path id="Path_772" data-name="Path 772" d="M209.492,38.7a1.707,1.707,0,0,1,1.31,1.781v.1a1.755,1.755,0,0,1-.758,1.494,1.778,1.778,0,0,1-1.679.287A6.949,6.949,0,0,0,206.115,42a7.411,7.411,0,0,0-5.24,12.63,7.138,7.138,0,0,0,5.24,2.169,7.312,7.312,0,0,0,2.251-.348,1.811,1.811,0,0,1,1.679.266,1.775,1.775,0,0,1,.758,1.515,1.726,1.726,0,0,1-1.31,1.781,11.25,11.25,0,0,1-3.377.512,11.181,11.181,0,0,1-11.177-11.176A11.151,11.151,0,0,1,209.492,38.7" transform="translate(-145.801 -28.548)" fill="#fff"/>
    <path id="Path_773" data-name="Path 773" d="M280.42,38.168A11.181,11.181,0,0,1,291.6,49.344a11.176,11.176,0,1,1-19.078-7.9,10.768,10.768,0,0,1,7.9-3.275m0,3.828a7.41,7.41,0,0,0-5.24,12.63,7.4,7.4,0,1,0,10.459-10.46A7.071,7.071,0,0,0,280.42,42" transform="translate(-201.377 -28.547)" fill="#fff"/>
    <path id="Path_774" data-name="Path 774" d="M380.467,65.147a7.113,7.113,0,0,0,5.056-2.17,7,7,0,0,0,2.334-5.22v-.041a11.172,11.172,0,0,1-18.567-8.372,11.177,11.177,0,0,1,22.353-.041v8.454a10.617,10.617,0,0,1-3.521,7.9,10.762,10.762,0,0,1-7.656,3.275q-6.571,0-9.825-5.076a1.872,1.872,0,0,1,.941-2.784l.061-.02a1.731,1.731,0,0,1,2.191.737,7.413,7.413,0,0,0,6.632,3.358m7.39-15.925a7.41,7.41,0,0,0-7.39-7.267,7.39,7.39,0,1,0,0,14.779,7.373,7.373,0,0,0,7.39-7.39Z" transform="translate(-276.205 -28.547)" fill="#fff"/>
    <path id="Path_775" data-name="Path 775" d="M478,58.658a1.744,1.744,0,0,1-.553,1.31,1.79,1.79,0,0,1-1.31.553h-.062a1.789,1.789,0,0,1-1.309-.553,1.748,1.748,0,0,1-.553-1.31v-11.2a9.283,9.283,0,1,1,18.566,0v11.2a1.888,1.888,0,0,1-1.863,1.863h-.042a1.818,1.818,0,0,1-1.331-.553,1.748,1.748,0,0,1-.552-1.31v-11.2a5.5,5.5,0,1,0-10.992,0Z" transform="translate(-354.678 -28.547)" fill="#fff"/>
    <path id="Path_776" data-name="Path 776" d="M567.981,9.436a2.236,2.236,0,0,1-2.251-2.251,2.148,2.148,0,0,1,.655-1.576,2.173,2.173,0,0,1,1.6-.655,2.149,2.149,0,0,1,1.576.655,2.115,2.115,0,0,1,.676,1.576,2.273,2.273,0,0,1-2.252,2.251m.021,3.89a1.746,1.746,0,0,1,1.309.553,1.811,1.811,0,0,1,.553,1.33V33.816A1.888,1.888,0,0,1,568,35.679h-.042a1.815,1.815,0,0,1-1.33-.553,1.75,1.75,0,0,1-.553-1.31V15.209a1.888,1.888,0,0,1,1.883-1.883Z" transform="translate(-423.129 -3.705)" fill="#fff"/>
    <path id="Path_777" data-name="Path 777" d="M603.383,4.875a1.852,1.852,0,0,1,1.863,1.862v6.53h3.685a1.788,1.788,0,0,1,1.309.553,1.811,1.811,0,0,1,.553,1.33v.041a1.744,1.744,0,0,1-.553,1.31,1.788,1.788,0,0,1-1.309.553h-3.685V29.806a1.95,1.95,0,0,0,.594,1.433,1.972,1.972,0,0,0,1.452.594h1.639a1.788,1.788,0,0,1,1.309.553,1.812,1.812,0,0,1,.553,1.331v.041a1.745,1.745,0,0,1-.553,1.31,1.79,1.79,0,0,1-1.309.553h-1.639a5.8,5.8,0,0,1-5.834-5.814V6.737a1.852,1.852,0,0,1,1.864-1.862Z" transform="translate(-449.851 -3.646)" fill="#fff"/>
    <path id="Path_778" data-name="Path 778" d="M653.65,50.8a5.486,5.486,0,0,0,5.506,5.507,5.521,5.521,0,0,0,5.485-5.507V40.051a1.888,1.888,0,0,1,1.883-1.883h.042a1.744,1.744,0,0,1,1.31.553,1.812,1.812,0,0,1,.553,1.33v19.59a9.549,9.549,0,0,1-9.272,9.293,10.035,10.035,0,0,1-5.282-1.433,9,9,0,0,1-3.479-3.705,1.873,1.873,0,0,1,1.044-2.6l.082-.041a1.816,1.816,0,0,1,1.289.021,1.893,1.893,0,0,1,.963.88,5.539,5.539,0,0,0,2.19,2.231,6.222,6.222,0,0,0,3.193.86,5.594,5.594,0,0,0,5.485-5.507V58.269a9.273,9.273,0,0,1-12.056-.921,8.882,8.882,0,0,1-2.722-6.55V40.051a1.814,1.814,0,0,1,.552-1.33,1.793,1.793,0,0,1,1.31-.553h.063a1.788,1.788,0,0,1,1.309.553,1.813,1.813,0,0,1,.553,1.33Z" transform="translate(-486.055 -28.547)" fill="#fff"/>
    <path id="Path_779" data-name="Path 779" d="M743.832,55.26c0-.014.027.041.083.163q.122.308.286,0l.04-.123L751.1,39.314a1.736,1.736,0,0,1,1.718-1.146h.042a1.872,1.872,0,0,1,1.719,2.6l-7.614,17.768a3.136,3.136,0,0,1-5.834,0l-7.615-17.768a1.873,1.873,0,0,1,1.72-2.6h.061a1.7,1.7,0,0,1,1.7,1.146q4.913,11.443,6.836,15.946" transform="translate(-548.501 -28.547)" fill="#fff"/>
    <path id="Path_780" data-name="Path 780" d="M41.917,56.119q.122.042.245.081a1.308,1.308,0,0,0,.295.091,11.128,11.128,0,1,0-7.944-10.042l.074.119a1.291,1.291,0,0,0,.823,1.046,1.088,1.088,0,0,0,.341.08,1.308,1.308,0,0,0,.7-.131l.025-.011a1.369,1.369,0,0,0,.23-.154,1.3,1.3,0,0,0,.418-.649c0-.012.011-.023.016-.035s0-.017,0-.028a1.3,1.3,0,0,0-.042-.715,8.525,8.525,0,1,1,13.994,6.394c-2.526,2.113-5.272,2.75-8.116,1.563.059.028.066.036.05.034l-.045-.011c-.056-.015-.12-.036-.029-.007a1.3,1.3,0,0,0-.895.138,1.131,1.131,0,0,0-.548.6,1.271,1.271,0,0,0-.11.409,0,0,0,0,0,0,0,1.232,1.232,0,0,0,.522,1.23" transform="translate(-25.801 -25.803)" fill="#f7324e"/>
    <path id="Path_781" data-name="Path 781" d="M26.417,1.125c-.145-.051-.289-.1-.435-.145a2.381,2.381,0,0,0-.524-.163A19.825,19.825,0,1,0,39.61,18.71l-.132-.214a2.306,2.306,0,0,0-1.466-1.863,1.976,1.976,0,0,0-.608-.142,2.322,2.322,0,0,0-1.246.234h0l-.044.022a2.3,2.3,0,0,0-1.153,1.428c-.01.022-.02.041-.029.063s0,.031,0,.046a2.311,2.311,0,0,0,.074,1.277A15.189,15.189,0,1,1,10.078,8.168c4.5-3.764,9.393-4.9,14.459-2.786-.107-.051-.117-.062-.09-.059l.08.019c.1.029.215.069.053.012a2.305,2.305,0,0,0,1.592-.245,2.024,2.024,0,0,0,.977-1.062,2.341,2.341,0,0,0,.2-.726.081.081,0,0,1,0-.01,2.193,2.193,0,0,0-.931-2.187" transform="translate(0 0.001)" fill="#f7324e"/>
    <path id="Path_782" data-name="Path 782" d="M570.067,6.525a2.534,2.534,0,1,1-2.534-2.535,2.534,2.534,0,0,1,2.534,2.535" transform="translate(-422.582 -2.984)" fill="#f7324e"/>
    <path id="Path_783" data-name="Path 783" d="M844.439,49.424a1.848,1.848,0,0,1-.921,2.477q-2.868,1.29-7.533,3.4l-7.513,3.4a7.028,7.028,0,0,0,5.814,2.824,7.392,7.392,0,0,0,6.979-4.974,1.756,1.756,0,0,1,1.8-1.269,1.8,1.8,0,0,1,1.535.8,1.759,1.759,0,0,1,.225,1.7,10.763,10.763,0,0,1-4.011,5.363,10.912,10.912,0,0,1-6.53,2.109A11.181,11.181,0,0,1,823.11,54.07a11.164,11.164,0,0,1,17.277-9.354,10.933,10.933,0,0,1,4.053,4.708m-10.153-2.7a7.4,7.4,0,0,0-7.308,8.495l12.957-5.854a7.042,7.042,0,0,0-5.649-2.641" transform="translate(-615.632 -32.082)" fill="#fff"/>
  </g>
</svg>
